<?xml version="1.0" encoding="utf-8"?>
<!-- Generator: Adobe Illustrator 27.4.0, SVG Export Plug-In . SVG Version: 6.00 Build 0)  -->
<svg version="1.1" id="Camada_1" xmlns="http://www.w3.org/2000/svg" xmlns:xlink="http://www.w3.org/1999/xlink" x="0px" y="0px"
	 viewBox="0 0 1024 1024" style="enable-background:new 0 0 1024 1024;" xml:space="preserve">
<style type="text/css">
	.st0{font-family:'Roboto-Light';}
	.st1{font-size:185.4743px;}
</style>
<g>
	<path d="M112.7,563.4c-0.1,0.4-0.2,0.8-0.4,1.2c-4.5,10.2-13.4,12.6-20.6,4c-1-1.2-1.9-2.6-2.7-4c-0.8-1.6-1.4-3.3-1.7-5.1
		c-0.4-3.5,1.1-7.8,5.4-6.9c3.6,0.8,6.1,2.6,10.1,3c0.8,0.1,1.7,0.1,2.6,0.1C106.2,559.4,109,562.4,112.7,563.4z"/>
	<path d="M100.2,530.6c1.2-1,2.6-1.9,4.1-2.6c1.6-0.8,3.4-1.4,5.2-1.6c3.5-0.4,7.8,1.2,6.8,5.5c-0.8,3.5-2.7,6-3.1,10.1
		c-0.1,0.7-0.1,1.4-0.1,2.2c-3.7,0.9-6.5,3.8-7.3,7.5c-0.6-0.1-1.2-0.3-1.7-0.5C93.8,546.6,91.5,537.7,100.2,530.6z"/>
	<path d="M115.3,546.2c4.2,0,7.7,3.4,7.7,7.7c0,4.2-3.4,7.7-7.7,7.7c-4.2,0-7.7-3.4-7.7-7.7c0-2.1,0.9-4,2.2-5.4
		C111.2,547.1,113.2,546.2,115.3,546.2z"/>
	<path d="M129.6,577.3c-1.3,1-2.7,1.8-4.2,2.4c-1.7,0.7-3.4,1.2-5.2,1.4c-3.6,0.2-7.8-1.6-6.5-5.8c1-3.5,3-5.9,3.6-9.9
		c0.1-0.6,0.2-1.2,0.2-1.7c1.8-0.4,3.5-1.3,4.8-2.7c1.4-1.4,2.3-3.1,2.7-5c0.6,0.1,1.3,0.3,1.9,0.6
		C136.7,561.7,138.6,570.7,129.6,577.3z"/>
	<path d="M136.8,555.2c-3.6-0.9-6-2.7-10.1-3.2c-0.6-0.1-1.1-0.1-1.7-0.1l0,0c-0.4-1.9-1.3-3.6-2.7-5c-1.4-1.4-3.2-2.4-5.2-2.7
		c0.1-0.5,0.2-0.9,0.4-1.3c4.7-10.1,13.6-12.4,20.6-3.7c1,1.2,1.9,2.6,2.6,4.1c0.8,1.6,1.3,3.4,1.6,5.2
		C142.7,552,141.1,556.2,136.8,555.2z"/>
	<path d="M262.8,524.6v-21.9c0-12.3-10-22.3-22.3-22.3h-63.2v-63.9c0-3.8-1.5-7.3-3.9-9.9c-0.1-0.1-0.2-0.2-0.4-0.4
		c-2.6-2.6-6.3-4.3-10.3-4.3c-0.2,0-0.3,0-0.5,0c-7.8,0.3-14.1,6.7-14.1,14.6v1.6c-3.3,0.6-6.6,0.9-10.1,0.9
		c-11.3,0-21.8-3.3-30.6-9c0.3-1.5,0.4-3,0.4-4.6c0-13.6-11-24.6-24.7-24.6s-24.7,11-24.7,24.6c0,13.6,11,24.6,24.7,24.6
		c4.2,0,8.1-1,11.5-2.9c1.4,1.4,2.9,2.7,4.4,3.9c9.6,7.6,21.7,12.1,34.8,12.1c4.9,0,9.6-0.6,14.1-1.8v39H78.9
		c-12.3,0-22.3,10-22.3,22.3v24H37.5V586h19.1v25c0,12.3,10,22.3,22.3,22.3h161.6c12.3,0,22.3-10,22.3-22.3v-27H281v-59.4
		L262.8,524.6L262.8,524.6z M87.3,418.2c-1.4,0.5-3,0.8-4.6,0.8c-7.8,0-14.1-6.3-14.1-14.1s6.3-14.1,14.1-14.1
		c6.7,0,12.4,4.7,13.8,11.1c0.2,1,0.3,2,0.3,3C96.8,411.1,92.8,416.3,87.3,418.2z M116.1,586.2c-18.4,0-33.3-14.9-33.3-33.3
		c0-18.4,14.9-33.3,33.3-33.3s33.3,14.9,33.3,33.3C149.4,571.3,134.5,586.2,116.1,586.2z M231.3,560.1c-27.4-20-54.3-0.8-55.4,0
		l-4.8-6.5c0.3-0.2,32.7-23.6,64.9,0L231.3,560.1z"/>
</g>
<text transform="matrix(1 0 0 1 319.6632 627.2422)" class="st0 st1">RESMP</text>
</svg>
