<?xml version="1.0" encoding="utf-8"?>
<!-- Generator: Adobe Illustrator 27.4.0, SVG Export Plug-In . SVG Version: 6.00 Build 0)  -->
<svg version="1.1" id="Camada_1" xmlns="http://www.w3.org/2000/svg" xmlns:xlink="http://www.w3.org/1999/xlink" x="0px" y="0px"
	 viewBox="0 0 1024 400" style="enable-background:new 0 0 1024 400;" xml:space="preserve">
<style type="text/css">
	.st0{fill:#FFFFFF;}
</style>
<g>
	<path class="st0" d="M441.9,28.7h-10.8C434.2,27.8,437.8,27.8,441.9,28.7z"/>
</g>
<path class="st0" d="M920.5,46.2C916,12.3,803.9,35.1,782.6,28.7v170.1l-8.2,3c3.2-64.5,15.9-185.2-26.2-173.1
	c-16.3,0.6-71-2.8-84,5.1c-23.5-5.5-99.4-18-109.1,12.5v175.9l-17,7.7c19.9-20.2,8.3-65.5,10.1-139.7l-82.7,35.1V63.8h27.6v35.1
	c36.4-16.4,61.9-0.5,55.1-52.7c-4.6-32-89.8-12.1-110.4-17.5h-10.8l-23.6,0H286l-92.6-2.2l0.5,0.7c-30.5,0.8-62.4,4.6-72.8,1.5
	v210.7h55.2c-4-122.1,13.3-97.9,34.5,0h55.2l-46.3-101.6l39.4-12.5l8-3.1c-8.2,97.6-32.7,132.3,136.7,117.2v-35.1h-82.7v-43.9
	l82.7-26.3V98.9l-82.7,26.4c-7.1-91.1,12.1-54.9,80.6-61.3l7.4,2.1c-3.6,40.1,7,99.1,1.5,111.8l82.7-35.1v61.5h-27.6
	c5.7-58.1-13.4-24.8-55.2-17.5c2,10.5-5.9,41.9,8,47.5c21.9,3.7,40.3,6.1,55.6,7.3h0c17.5,1.4,31,1.1,41.5-0.9l57.5-1.3h37.3V63.8
	h27.6v175.6H693V63.8c6.4-0.1,21,0.1,27.6,0v175.6c0,0,55.1,0,55.2,0h7c84.8,7.2,47.4-14.9,55-79
	C917.7,126.3,927.2,141.2,920.5,46.2z M837.8,63.8c43.6-5,23.2,13.1,27.6,43.9l-27.6,17.6V63.8z M203.7,107.7l-27.6,17.6V63.8
	C219.7,58.9,199.4,76.9,203.7,107.7z"/>
<g>
	<path class="st0" d="M587.9,312.2c-1.9-1.2-2.9-2.6-2.9-4.2v-53.6h19.9V302h10v-47.6h19.9V302h3.7h6.2v-47.6h19.9V308
		c0,1.6-1,3-2.9,4.2c-2,1.2-4.3,1.7-7.1,1.7h-22.4c-2.7,0-5.1-0.6-7.1-1.8c-0.2-0.1-0.3-0.2-0.4-0.2c-0.1,0.1-0.3,0.2-0.4,0.3
		c-2,1.2-4.3,1.7-7.1,1.7h-22.4C592.2,314,589.8,313.4,587.9,312.2z"/>
	<path class="st0" d="M670.1,312.2c-1.9-1.2-2.9-2.6-2.9-4.2v-47.7c0-1.6,1-3,2.9-4.2c2-1.2,4.3-1.8,7.1-1.8H707
		c2.7,0,5.1,0.6,7.1,1.7c2,1.2,2.9,2.6,2.9,4.2v23.8l-29.9,11.9v5.9h10v-8.9l19.9-5.9V308c0,1.6-1,3-2.9,4.2c-2,1.2-4.3,1.7-7.1,1.7
		h-29.9C674.4,314,672,313.4,670.1,312.2z M697.1,278.2v-11.9h-10v17.9L697.1,278.2z"/>
	<path class="st0" d="M719.5,248.5l19.9-5.9v17.9c0-1.6,0.5-3,1.4-4.2c1-1.2,2.2-1.8,3.5-1.8h14.9c2.7,0,5.1,0.6,7.1,1.7
		c2,1.2,2.9,2.6,2.9,4.2V308c0,1.6-1,3-2.9,4.2c-2,1.2-4.3,1.7-7.1,1.7h-14.9c-1.4,0-2.5-0.6-3.5-1.7c-1-1.2-1.4-2.6-1.4-4.2v5.9
		h-19.9V248.5z M749.4,266.3h-10V302h10V266.3z"/>
	<path class="st0" d="M774.7,312.2c-1.9-1.2-2.9-2.6-2.9-4.2v-53.6h19.9V302h10v-47.6h19.9V314h-19.9v-6c0,1.6-0.5,3-1.5,4.2
		s-2.2,1.8-3.5,1.8h-15C779,314,776.6,313.4,774.7,312.2z"/>
	<path class="st0" d="M824.1,245.5l19.9-6v11.9l-19.9,6V245.5z M824.1,260.4l19.9-5.9V314h-19.9V260.4z"/>
</g>
</svg>
