<svg id="Layer_1" data-name="Layer 1" xmlns="http://www.w3.org/2000/svg" viewBox="0 0 120.47 122.88">
  <defs>
    <style>.cls-1{fill:url(#grad1);fill-rule:evenodd;}</style>
    <linearGradient id="grad1" x1="0%" y1="0%" x2="100%" y2="100%">
      <stop offset="0%" style="stop-color:rgb(142, 210, 201);stop-opacity:1" />
      <stop offset="100%" style="stop-color:rgb(224, 195, 252);stop-opacity:1" />
    </linearGradient>
  </defs>
  <title>instant-response</title>
  <path class="cls-1" d="M17.2,0H79.49a17.24,17.24,0,0,1,17.2,17.2V55.55a17.24,17.24,0,0,1-17.2,17.2H46.92L20.81,95.2A2.9,2.9,0,0,1,16,93c0-.07,0-.15,0-.22l1.39-20.07H17.2A17.24,17.24,0,0,1,0,55.55V17.2A17.24,17.24,0,0,1,17.2,0ZM45.27,40.55l-11.78-1.1L45.56,15.76H58.91L49,30.33l13.62,1.51-25,30,7.61-21.3ZM106.79,28a16.91,16.91,0,0,1,13.68,16.55V82.88a16.88,16.88,0,0,1-16.85,16.85H103l1.42,20.45h0a.86.86,0,0,1,0,.16,2.54,2.54,0,0,1-2.54,2.54,2.51,2.51,0,0,1-1.65-.61L74,99.07H39.49l17-17.3h36a14.34,14.34,0,0,0,14.3-14.3V28ZM79.48,5.8H17.2A11.43,11.43,0,0,0,5.8,17.2V55.55h0A11.44,11.44,0,0,0,17.2,67h3.53a2.91,2.91,0,0,1,2.7,2.9c0,.06,0,.12,0,.18L22.29,86.31,43.83,67.79a2.88,2.88,0,0,1,2-.84H79.48a11.43,11.43,0,0,0,11.4-11.4V17.2A11.43,11.43,0,0,0,79.48,5.8Z"/>
</svg>
